%
M48
M72
T01C0.01378
T02C0.01500
T03C0.01575
T04C0.01772
T05C0.02362
T06C0.03150
T07C0.03937
T08C0.04000
T09C0.04331
T10C0.04400
T11C0.05906
T12C0.06693
T13C0.07087
T14C0.09100
T15C0.10630
T16C0.12500
%
T01
X276876Y234671
X275301Y239002
X345380Y198844
X288293Y349631
X284750Y355931
X261915Y348057
X309946Y373254
X314671Y376436
X336718Y379553
X342230Y379553
X137506Y354750
X26482Y387033
T02
X304939Y167238
X355939Y131238
X355939Y127238
T03
X349057Y129387
X343057Y129387
X337057Y129387
X328939Y137238
X337057Y149387
X343057Y149387
X349057Y149387
X357057Y149387
X359057Y137387
X332750Y171419
X308057Y137387
X279458Y160797
X277096Y172608
X270403Y172214
X265679Y170246
X275521Y183631
X262372Y152608
X270403Y138750
X268261Y87096
X274261Y71348
X293261Y87529
X325813Y95647
X373057Y45647
X397072Y103915
X397072Y166513
X307261Y32663
X271261Y32663
X237939Y37238
X217702Y32978
X185631Y70458
X155403Y32978
X134403Y32978
X118545Y83797
X108915Y96458
X112380Y102663
X102923Y86553
X137183Y124679
X137576Y142033
X137576Y149907
X120254Y166474
X109230Y166443
X97261Y170348
X108836Y189490
X119860Y193608
X159624Y164474
X169860Y173923
X178521Y179041
X168285Y186521
X174584Y145183
X165529Y144002
X167104Y126679
X177340Y129828
X158443Y113687
X155324Y122072
X208631Y113576
X219687Y113576
X229852Y95553
X238624Y73773
X217687Y147576
X208631Y147576
X102931Y140065
X86789Y144395
X79687Y143041
X81261Y133592
X53356Y168135
X154435Y330734
X59277Y403844
X54946Y403844
X269002Y350419
X272545Y359080
X278057Y359080
X320970Y356718
X325694Y356718
X341049Y349238
X344592Y352781
X353647Y348844
X358765Y346088
X361653Y351637
X364896Y357280
X371757Y416561
X376482Y416561
X363490Y416954
X354828Y417348
X350498Y417348
X346167Y416954
T04
X320183Y410655
X310734Y420498
X318214Y433096
X303254Y435458
X284750Y418135
X273647Y424513
X278726Y437860
X283332Y400734
X277269Y391757
X269789Y380340
X258765Y379946
X250104Y392151
X243411Y384277
X219868Y384198
X215065Y363017
X207978Y363017
X200498Y362624
X190655Y354750
X166246Y354750
X156403Y358293
X153254Y361836
X145380Y353175
X143017Y330734
X131994Y330734
X163490Y330734
X181600Y330734
X199317Y330734
X215852Y354750
X230419Y354750
X248529Y354750
X251285Y351206
X253647Y347269
X254435Y330734
X274120Y330734
X290655Y330734
X291443Y354356
X274907Y354356
X287899Y389395
X300891Y400025
X315458Y387427
X327663Y379946
X313883Y329553
X330025Y322860
X343805Y323254
X355616Y322466
X386324Y345694
X394198Y337820
X400104Y357506
X395773Y372860
X387899Y386639
X397742Y413411
X388293Y438608
X389868Y308687
X389868Y274828
X389868Y251206
X355616Y219317
X369789Y192939
X392624Y192151
X337506Y265773
X336324Y277584
X286718Y237820
X263883Y278765
X228844Y287427
X216639Y278765
X193805Y268923
X157584Y251206
X137899Y278765
X114277Y251206
X118608Y222072
X82387Y186639
X68214Y220498
X59159Y251206
X61521Y281915
X72151Y312624
X85143Y312624
X90261Y346876
X89868Y356718
X87506Y360655
X84750Y365773
X87112Y376403
X78175Y393608
X68726Y393214
X61521Y393726
X50104Y394907
X45773Y394907
X32269Y415025
X32781Y420498
X20576Y414986
X17820Y381521
X66246Y376009
X74513Y347269
X105616Y384277
X102584Y402939
X95380Y420104
X114671Y434671
X120576Y426403
X131206Y412624
X142230Y407899
X129238Y396876
X161128Y407899
X180813Y381128
X190261Y384277
X198135Y415773
X204435Y415773
X209946Y415773
X215065Y418135
X219002Y416167
X219395Y421285
X227269Y422702
X228844Y418376
X150498Y433490
X69789Y413017
X64671Y413017
X19789Y302387
X19789Y274828
X19789Y251206
X20576Y220498
X20183Y169317
X19395Y114986
X53647Y88608
X19789Y68529
X53254Y31521
X167427Y94513
X202072Y174435
X228450Y174435
X293805Y161049
X339868Y86639
X229238Y330734
T05
X107427Y354553
T06
X327065Y31238
X334939Y31238
X342813Y31238
T07
X374939Y134545
X374939Y148324
T08
X379939Y107238
X379939Y97238
X379939Y87238
X379939Y77238
X369939Y77238
X369939Y87238
X369939Y97238
X369939Y107238
X321639Y203569
X311639Y203569
X311482Y219710
X301482Y219710
X291482Y219710
X281482Y219710
X271482Y219710
X261482Y219710
X251482Y219710
X241482Y219710
X231482Y219710
X205537Y219710
X195537Y218710
X185537Y219710
X156679Y219317
X146679Y219317
X231289Y63750
X241289Y63750
X321482Y219710
X369474Y218923
X379474Y219923
X389474Y218923
X46443Y435065
X36443Y435065
T09
X370419Y354553
T10
X290261Y101828
X280261Y101828
X270261Y101828
T11
X318797Y31238
X351080Y31238
T12
X242761Y433805
X185419Y433805
T13
X193939Y56049
X193939Y32427
X281939Y32427
X281939Y56049
X105939Y56049
X105939Y32427
T14
X47112Y311537
X47112Y363237
T15
X185419Y410635
X242506Y410340
T16
X17427Y33096
X17427Y434671
X399317Y434671
X399317Y33096
M30
