G75*
%MOIN*%
%OFA0B0*%
%FSLAX25Y25*%
%IPPOS*%
%LPD*%
%AMOC8*
5,1,8,0,0,1.08239X$1,22.5*
%
%ADD10C,0.00000*%
%ADD11C,0.00600*%
%ADD12C,0.00800*%
D10*
X0013490Y0020104D02*
X0403254Y0019710D01*
X0403444Y0019712D01*
X0403634Y0019719D01*
X0403824Y0019731D01*
X0404014Y0019747D01*
X0404203Y0019767D01*
X0404392Y0019793D01*
X0404580Y0019822D01*
X0404767Y0019857D01*
X0404953Y0019896D01*
X0405138Y0019939D01*
X0405323Y0019987D01*
X0405506Y0020039D01*
X0405687Y0020095D01*
X0405867Y0020156D01*
X0406046Y0020222D01*
X0406223Y0020291D01*
X0406399Y0020365D01*
X0406572Y0020443D01*
X0406744Y0020526D01*
X0406913Y0020612D01*
X0407081Y0020702D01*
X0407246Y0020797D01*
X0407409Y0020895D01*
X0407569Y0020998D01*
X0407727Y0021104D01*
X0407882Y0021214D01*
X0408035Y0021327D01*
X0408185Y0021445D01*
X0408331Y0021566D01*
X0408475Y0021690D01*
X0408616Y0021818D01*
X0408754Y0021949D01*
X0408889Y0022084D01*
X0409020Y0022222D01*
X0409148Y0022363D01*
X0409272Y0022507D01*
X0409393Y0022653D01*
X0409511Y0022803D01*
X0409624Y0022956D01*
X0409734Y0023111D01*
X0409840Y0023269D01*
X0409943Y0023429D01*
X0410041Y0023592D01*
X0410136Y0023757D01*
X0410226Y0023925D01*
X0410312Y0024094D01*
X0410395Y0024266D01*
X0410473Y0024439D01*
X0410547Y0024615D01*
X0410616Y0024792D01*
X0410682Y0024971D01*
X0410743Y0025151D01*
X0410799Y0025332D01*
X0410851Y0025515D01*
X0410899Y0025700D01*
X0410942Y0025885D01*
X0410981Y0026071D01*
X0411016Y0026258D01*
X0411045Y0026446D01*
X0411071Y0026635D01*
X0411091Y0026824D01*
X0411107Y0027014D01*
X0411119Y0027204D01*
X0411126Y0027394D01*
X0411128Y0027584D01*
X0411128Y0438608D01*
X0411126Y0438798D01*
X0411119Y0438988D01*
X0411107Y0439178D01*
X0411091Y0439368D01*
X0411071Y0439557D01*
X0411045Y0439746D01*
X0411016Y0439934D01*
X0410981Y0440121D01*
X0410942Y0440307D01*
X0410899Y0440492D01*
X0410851Y0440677D01*
X0410799Y0440860D01*
X0410743Y0441041D01*
X0410682Y0441221D01*
X0410616Y0441400D01*
X0410547Y0441577D01*
X0410473Y0441753D01*
X0410395Y0441926D01*
X0410312Y0442098D01*
X0410226Y0442267D01*
X0410136Y0442435D01*
X0410041Y0442600D01*
X0409943Y0442763D01*
X0409840Y0442923D01*
X0409734Y0443081D01*
X0409624Y0443236D01*
X0409511Y0443389D01*
X0409393Y0443539D01*
X0409272Y0443685D01*
X0409148Y0443829D01*
X0409020Y0443970D01*
X0408889Y0444108D01*
X0408754Y0444243D01*
X0408616Y0444374D01*
X0408475Y0444502D01*
X0408331Y0444626D01*
X0408185Y0444747D01*
X0408035Y0444865D01*
X0407882Y0444978D01*
X0407727Y0445088D01*
X0407569Y0445194D01*
X0407409Y0445297D01*
X0407246Y0445395D01*
X0407081Y0445490D01*
X0406913Y0445580D01*
X0406744Y0445666D01*
X0406572Y0445749D01*
X0406399Y0445827D01*
X0406223Y0445901D01*
X0406046Y0445970D01*
X0405867Y0446036D01*
X0405687Y0446097D01*
X0405506Y0446153D01*
X0405323Y0446205D01*
X0405138Y0446253D01*
X0404953Y0446296D01*
X0404767Y0446335D01*
X0404580Y0446370D01*
X0404392Y0446399D01*
X0404203Y0446425D01*
X0404014Y0446445D01*
X0403824Y0446461D01*
X0403634Y0446473D01*
X0403444Y0446480D01*
X0403254Y0446482D01*
X0013490Y0446482D01*
X0013300Y0446480D01*
X0013110Y0446473D01*
X0012920Y0446461D01*
X0012730Y0446445D01*
X0012541Y0446425D01*
X0012352Y0446399D01*
X0012164Y0446370D01*
X0011977Y0446335D01*
X0011791Y0446296D01*
X0011606Y0446253D01*
X0011421Y0446205D01*
X0011238Y0446153D01*
X0011057Y0446097D01*
X0010877Y0446036D01*
X0010698Y0445970D01*
X0010521Y0445901D01*
X0010345Y0445827D01*
X0010172Y0445749D01*
X0010000Y0445666D01*
X0009831Y0445580D01*
X0009663Y0445490D01*
X0009498Y0445395D01*
X0009335Y0445297D01*
X0009175Y0445194D01*
X0009017Y0445088D01*
X0008862Y0444978D01*
X0008709Y0444865D01*
X0008559Y0444747D01*
X0008413Y0444626D01*
X0008269Y0444502D01*
X0008128Y0444374D01*
X0007990Y0444243D01*
X0007855Y0444108D01*
X0007724Y0443970D01*
X0007596Y0443829D01*
X0007472Y0443685D01*
X0007351Y0443539D01*
X0007233Y0443389D01*
X0007120Y0443236D01*
X0007010Y0443081D01*
X0006904Y0442923D01*
X0006801Y0442763D01*
X0006703Y0442600D01*
X0006608Y0442435D01*
X0006518Y0442267D01*
X0006432Y0442098D01*
X0006349Y0441926D01*
X0006271Y0441753D01*
X0006197Y0441577D01*
X0006128Y0441400D01*
X0006062Y0441221D01*
X0006001Y0441041D01*
X0005945Y0440860D01*
X0005893Y0440677D01*
X0005845Y0440492D01*
X0005802Y0440307D01*
X0005763Y0440121D01*
X0005728Y0439934D01*
X0005699Y0439746D01*
X0005673Y0439557D01*
X0005653Y0439368D01*
X0005637Y0439178D01*
X0005625Y0438988D01*
X0005618Y0438798D01*
X0005616Y0438608D01*
X0005616Y0027978D01*
X0005618Y0027788D01*
X0005625Y0027598D01*
X0005637Y0027408D01*
X0005653Y0027218D01*
X0005673Y0027029D01*
X0005699Y0026840D01*
X0005728Y0026652D01*
X0005763Y0026465D01*
X0005802Y0026279D01*
X0005845Y0026094D01*
X0005893Y0025909D01*
X0005945Y0025726D01*
X0006001Y0025545D01*
X0006062Y0025365D01*
X0006128Y0025186D01*
X0006197Y0025009D01*
X0006271Y0024833D01*
X0006349Y0024660D01*
X0006432Y0024488D01*
X0006518Y0024319D01*
X0006608Y0024151D01*
X0006703Y0023986D01*
X0006801Y0023823D01*
X0006904Y0023663D01*
X0007010Y0023505D01*
X0007120Y0023350D01*
X0007233Y0023197D01*
X0007351Y0023047D01*
X0007472Y0022901D01*
X0007596Y0022757D01*
X0007724Y0022616D01*
X0007855Y0022478D01*
X0007990Y0022343D01*
X0008128Y0022212D01*
X0008269Y0022084D01*
X0008413Y0021960D01*
X0008559Y0021839D01*
X0008709Y0021721D01*
X0008862Y0021608D01*
X0009017Y0021498D01*
X0009175Y0021392D01*
X0009335Y0021289D01*
X0009498Y0021191D01*
X0009663Y0021096D01*
X0009831Y0021006D01*
X0010000Y0020920D01*
X0010172Y0020837D01*
X0010345Y0020759D01*
X0010521Y0020685D01*
X0010698Y0020616D01*
X0010877Y0020550D01*
X0011057Y0020489D01*
X0011238Y0020433D01*
X0011421Y0020381D01*
X0011606Y0020333D01*
X0011791Y0020290D01*
X0011977Y0020251D01*
X0012164Y0020216D01*
X0012352Y0020187D01*
X0012541Y0020161D01*
X0012730Y0020141D01*
X0012920Y0020125D01*
X0013110Y0020113D01*
X0013300Y0020106D01*
X0013490Y0020104D01*
X0011177Y0033096D02*
X0011179Y0033254D01*
X0011185Y0033411D01*
X0011195Y0033569D01*
X0011209Y0033726D01*
X0011227Y0033882D01*
X0011248Y0034039D01*
X0011274Y0034194D01*
X0011304Y0034349D01*
X0011337Y0034503D01*
X0011375Y0034656D01*
X0011416Y0034809D01*
X0011461Y0034960D01*
X0011510Y0035110D01*
X0011563Y0035258D01*
X0011619Y0035406D01*
X0011680Y0035551D01*
X0011743Y0035696D01*
X0011811Y0035838D01*
X0011882Y0035979D01*
X0011956Y0036118D01*
X0012034Y0036255D01*
X0012116Y0036390D01*
X0012200Y0036523D01*
X0012289Y0036654D01*
X0012380Y0036782D01*
X0012475Y0036909D01*
X0012572Y0037032D01*
X0012673Y0037154D01*
X0012777Y0037272D01*
X0012884Y0037388D01*
X0012994Y0037501D01*
X0013106Y0037612D01*
X0013222Y0037719D01*
X0013340Y0037824D01*
X0013460Y0037926D01*
X0013583Y0038024D01*
X0013709Y0038120D01*
X0013837Y0038212D01*
X0013967Y0038301D01*
X0014099Y0038387D01*
X0014234Y0038469D01*
X0014371Y0038548D01*
X0014509Y0038623D01*
X0014649Y0038695D01*
X0014792Y0038763D01*
X0014935Y0038828D01*
X0015081Y0038889D01*
X0015228Y0038946D01*
X0015376Y0039000D01*
X0015526Y0039050D01*
X0015676Y0039096D01*
X0015828Y0039138D01*
X0015981Y0039177D01*
X0016135Y0039211D01*
X0016290Y0039242D01*
X0016445Y0039268D01*
X0016601Y0039291D01*
X0016758Y0039310D01*
X0016915Y0039325D01*
X0017072Y0039336D01*
X0017230Y0039343D01*
X0017388Y0039346D01*
X0017545Y0039345D01*
X0017703Y0039340D01*
X0017860Y0039331D01*
X0018018Y0039318D01*
X0018174Y0039301D01*
X0018331Y0039280D01*
X0018486Y0039256D01*
X0018641Y0039227D01*
X0018796Y0039194D01*
X0018949Y0039158D01*
X0019102Y0039117D01*
X0019253Y0039073D01*
X0019403Y0039025D01*
X0019552Y0038974D01*
X0019700Y0038918D01*
X0019846Y0038859D01*
X0019991Y0038796D01*
X0020134Y0038729D01*
X0020275Y0038659D01*
X0020414Y0038586D01*
X0020552Y0038509D01*
X0020688Y0038428D01*
X0020821Y0038344D01*
X0020952Y0038257D01*
X0021081Y0038166D01*
X0021208Y0038072D01*
X0021333Y0037975D01*
X0021454Y0037875D01*
X0021574Y0037772D01*
X0021690Y0037666D01*
X0021804Y0037557D01*
X0021916Y0037445D01*
X0022024Y0037331D01*
X0022129Y0037213D01*
X0022232Y0037093D01*
X0022331Y0036971D01*
X0022427Y0036846D01*
X0022520Y0036718D01*
X0022610Y0036589D01*
X0022696Y0036457D01*
X0022780Y0036323D01*
X0022859Y0036187D01*
X0022936Y0036049D01*
X0023008Y0035909D01*
X0023077Y0035767D01*
X0023143Y0035624D01*
X0023205Y0035479D01*
X0023263Y0035332D01*
X0023318Y0035184D01*
X0023369Y0035035D01*
X0023416Y0034884D01*
X0023459Y0034733D01*
X0023498Y0034580D01*
X0023534Y0034426D01*
X0023565Y0034272D01*
X0023593Y0034117D01*
X0023617Y0033961D01*
X0023637Y0033804D01*
X0023653Y0033647D01*
X0023665Y0033490D01*
X0023673Y0033333D01*
X0023677Y0033175D01*
X0023677Y0033017D01*
X0023673Y0032859D01*
X0023665Y0032702D01*
X0023653Y0032545D01*
X0023637Y0032388D01*
X0023617Y0032231D01*
X0023593Y0032075D01*
X0023565Y0031920D01*
X0023534Y0031766D01*
X0023498Y0031612D01*
X0023459Y0031459D01*
X0023416Y0031308D01*
X0023369Y0031157D01*
X0023318Y0031008D01*
X0023263Y0030860D01*
X0023205Y0030713D01*
X0023143Y0030568D01*
X0023077Y0030425D01*
X0023008Y0030283D01*
X0022936Y0030143D01*
X0022859Y0030005D01*
X0022780Y0029869D01*
X0022696Y0029735D01*
X0022610Y0029603D01*
X0022520Y0029474D01*
X0022427Y0029346D01*
X0022331Y0029221D01*
X0022232Y0029099D01*
X0022129Y0028979D01*
X0022024Y0028861D01*
X0021916Y0028747D01*
X0021804Y0028635D01*
X0021690Y0028526D01*
X0021574Y0028420D01*
X0021454Y0028317D01*
X0021333Y0028217D01*
X0021208Y0028120D01*
X0021081Y0028026D01*
X0020952Y0027935D01*
X0020821Y0027848D01*
X0020688Y0027764D01*
X0020552Y0027683D01*
X0020414Y0027606D01*
X0020275Y0027533D01*
X0020134Y0027463D01*
X0019991Y0027396D01*
X0019846Y0027333D01*
X0019700Y0027274D01*
X0019552Y0027218D01*
X0019403Y0027167D01*
X0019253Y0027119D01*
X0019102Y0027075D01*
X0018949Y0027034D01*
X0018796Y0026998D01*
X0018641Y0026965D01*
X0018486Y0026936D01*
X0018331Y0026912D01*
X0018174Y0026891D01*
X0018018Y0026874D01*
X0017860Y0026861D01*
X0017703Y0026852D01*
X0017545Y0026847D01*
X0017388Y0026846D01*
X0017230Y0026849D01*
X0017072Y0026856D01*
X0016915Y0026867D01*
X0016758Y0026882D01*
X0016601Y0026901D01*
X0016445Y0026924D01*
X0016290Y0026950D01*
X0016135Y0026981D01*
X0015981Y0027015D01*
X0015828Y0027054D01*
X0015676Y0027096D01*
X0015526Y0027142D01*
X0015376Y0027192D01*
X0015228Y0027246D01*
X0015081Y0027303D01*
X0014935Y0027364D01*
X0014792Y0027429D01*
X0014649Y0027497D01*
X0014509Y0027569D01*
X0014371Y0027644D01*
X0014234Y0027723D01*
X0014099Y0027805D01*
X0013967Y0027891D01*
X0013837Y0027980D01*
X0013709Y0028072D01*
X0013583Y0028168D01*
X0013460Y0028266D01*
X0013340Y0028368D01*
X0013222Y0028473D01*
X0013106Y0028580D01*
X0012994Y0028691D01*
X0012884Y0028804D01*
X0012777Y0028920D01*
X0012673Y0029038D01*
X0012572Y0029160D01*
X0012475Y0029283D01*
X0012380Y0029410D01*
X0012289Y0029538D01*
X0012200Y0029669D01*
X0012116Y0029802D01*
X0012034Y0029937D01*
X0011956Y0030074D01*
X0011882Y0030213D01*
X0011811Y0030354D01*
X0011743Y0030496D01*
X0011680Y0030641D01*
X0011619Y0030786D01*
X0011563Y0030934D01*
X0011510Y0031082D01*
X0011461Y0031232D01*
X0011416Y0031383D01*
X0011375Y0031536D01*
X0011337Y0031689D01*
X0011304Y0031843D01*
X0011274Y0031998D01*
X0011248Y0032153D01*
X0011227Y0032310D01*
X0011209Y0032466D01*
X0011195Y0032623D01*
X0011185Y0032781D01*
X0011179Y0032938D01*
X0011177Y0033096D01*
X0102396Y0032427D02*
X0102398Y0032545D01*
X0102404Y0032664D01*
X0102414Y0032782D01*
X0102428Y0032899D01*
X0102445Y0033016D01*
X0102467Y0033133D01*
X0102493Y0033248D01*
X0102522Y0033363D01*
X0102555Y0033477D01*
X0102592Y0033589D01*
X0102633Y0033700D01*
X0102677Y0033810D01*
X0102725Y0033918D01*
X0102777Y0034025D01*
X0102832Y0034130D01*
X0102891Y0034233D01*
X0102953Y0034333D01*
X0103018Y0034432D01*
X0103087Y0034529D01*
X0103158Y0034623D01*
X0103233Y0034714D01*
X0103311Y0034804D01*
X0103392Y0034890D01*
X0103476Y0034974D01*
X0103562Y0035055D01*
X0103652Y0035133D01*
X0103743Y0035208D01*
X0103837Y0035279D01*
X0103934Y0035348D01*
X0104033Y0035413D01*
X0104133Y0035475D01*
X0104236Y0035534D01*
X0104341Y0035589D01*
X0104448Y0035641D01*
X0104556Y0035689D01*
X0104666Y0035733D01*
X0104777Y0035774D01*
X0104889Y0035811D01*
X0105003Y0035844D01*
X0105118Y0035873D01*
X0105233Y0035899D01*
X0105350Y0035921D01*
X0105467Y0035938D01*
X0105584Y0035952D01*
X0105702Y0035962D01*
X0105821Y0035968D01*
X0105939Y0035970D01*
X0106057Y0035968D01*
X0106176Y0035962D01*
X0106294Y0035952D01*
X0106411Y0035938D01*
X0106528Y0035921D01*
X0106645Y0035899D01*
X0106760Y0035873D01*
X0106875Y0035844D01*
X0106989Y0035811D01*
X0107101Y0035774D01*
X0107212Y0035733D01*
X0107322Y0035689D01*
X0107430Y0035641D01*
X0107537Y0035589D01*
X0107642Y0035534D01*
X0107745Y0035475D01*
X0107845Y0035413D01*
X0107944Y0035348D01*
X0108041Y0035279D01*
X0108135Y0035208D01*
X0108226Y0035133D01*
X0108316Y0035055D01*
X0108402Y0034974D01*
X0108486Y0034890D01*
X0108567Y0034804D01*
X0108645Y0034714D01*
X0108720Y0034623D01*
X0108791Y0034529D01*
X0108860Y0034432D01*
X0108925Y0034333D01*
X0108987Y0034233D01*
X0109046Y0034130D01*
X0109101Y0034025D01*
X0109153Y0033918D01*
X0109201Y0033810D01*
X0109245Y0033700D01*
X0109286Y0033589D01*
X0109323Y0033477D01*
X0109356Y0033363D01*
X0109385Y0033248D01*
X0109411Y0033133D01*
X0109433Y0033016D01*
X0109450Y0032899D01*
X0109464Y0032782D01*
X0109474Y0032664D01*
X0109480Y0032545D01*
X0109482Y0032427D01*
X0109480Y0032309D01*
X0109474Y0032190D01*
X0109464Y0032072D01*
X0109450Y0031955D01*
X0109433Y0031838D01*
X0109411Y0031721D01*
X0109385Y0031606D01*
X0109356Y0031491D01*
X0109323Y0031377D01*
X0109286Y0031265D01*
X0109245Y0031154D01*
X0109201Y0031044D01*
X0109153Y0030936D01*
X0109101Y0030829D01*
X0109046Y0030724D01*
X0108987Y0030621D01*
X0108925Y0030521D01*
X0108860Y0030422D01*
X0108791Y0030325D01*
X0108720Y0030231D01*
X0108645Y0030140D01*
X0108567Y0030050D01*
X0108486Y0029964D01*
X0108402Y0029880D01*
X0108316Y0029799D01*
X0108226Y0029721D01*
X0108135Y0029646D01*
X0108041Y0029575D01*
X0107944Y0029506D01*
X0107845Y0029441D01*
X0107745Y0029379D01*
X0107642Y0029320D01*
X0107537Y0029265D01*
X0107430Y0029213D01*
X0107322Y0029165D01*
X0107212Y0029121D01*
X0107101Y0029080D01*
X0106989Y0029043D01*
X0106875Y0029010D01*
X0106760Y0028981D01*
X0106645Y0028955D01*
X0106528Y0028933D01*
X0106411Y0028916D01*
X0106294Y0028902D01*
X0106176Y0028892D01*
X0106057Y0028886D01*
X0105939Y0028884D01*
X0105821Y0028886D01*
X0105702Y0028892D01*
X0105584Y0028902D01*
X0105467Y0028916D01*
X0105350Y0028933D01*
X0105233Y0028955D01*
X0105118Y0028981D01*
X0105003Y0029010D01*
X0104889Y0029043D01*
X0104777Y0029080D01*
X0104666Y0029121D01*
X0104556Y0029165D01*
X0104448Y0029213D01*
X0104341Y0029265D01*
X0104236Y0029320D01*
X0104133Y0029379D01*
X0104033Y0029441D01*
X0103934Y0029506D01*
X0103837Y0029575D01*
X0103743Y0029646D01*
X0103652Y0029721D01*
X0103562Y0029799D01*
X0103476Y0029880D01*
X0103392Y0029964D01*
X0103311Y0030050D01*
X0103233Y0030140D01*
X0103158Y0030231D01*
X0103087Y0030325D01*
X0103018Y0030422D01*
X0102953Y0030521D01*
X0102891Y0030621D01*
X0102832Y0030724D01*
X0102777Y0030829D01*
X0102725Y0030936D01*
X0102677Y0031044D01*
X0102633Y0031154D01*
X0102592Y0031265D01*
X0102555Y0031377D01*
X0102522Y0031491D01*
X0102493Y0031606D01*
X0102467Y0031721D01*
X0102445Y0031838D01*
X0102428Y0031955D01*
X0102414Y0032072D01*
X0102404Y0032190D01*
X0102398Y0032309D01*
X0102396Y0032427D01*
X0102396Y0056049D02*
X0102398Y0056167D01*
X0102404Y0056286D01*
X0102414Y0056404D01*
X0102428Y0056521D01*
X0102445Y0056638D01*
X0102467Y0056755D01*
X0102493Y0056870D01*
X0102522Y0056985D01*
X0102555Y0057099D01*
X0102592Y0057211D01*
X0102633Y0057322D01*
X0102677Y0057432D01*
X0102725Y0057540D01*
X0102777Y0057647D01*
X0102832Y0057752D01*
X0102891Y0057855D01*
X0102953Y0057955D01*
X0103018Y0058054D01*
X0103087Y0058151D01*
X0103158Y0058245D01*
X0103233Y0058336D01*
X0103311Y0058426D01*
X0103392Y0058512D01*
X0103476Y0058596D01*
X0103562Y0058677D01*
X0103652Y0058755D01*
X0103743Y0058830D01*
X0103837Y0058901D01*
X0103934Y0058970D01*
X0104033Y0059035D01*
X0104133Y0059097D01*
X0104236Y0059156D01*
X0104341Y0059211D01*
X0104448Y0059263D01*
X0104556Y0059311D01*
X0104666Y0059355D01*
X0104777Y0059396D01*
X0104889Y0059433D01*
X0105003Y0059466D01*
X0105118Y0059495D01*
X0105233Y0059521D01*
X0105350Y0059543D01*
X0105467Y0059560D01*
X0105584Y0059574D01*
X0105702Y0059584D01*
X0105821Y0059590D01*
X0105939Y0059592D01*
X0106057Y0059590D01*
X0106176Y0059584D01*
X0106294Y0059574D01*
X0106411Y0059560D01*
X0106528Y0059543D01*
X0106645Y0059521D01*
X0106760Y0059495D01*
X0106875Y0059466D01*
X0106989Y0059433D01*
X0107101Y0059396D01*
X0107212Y0059355D01*
X0107322Y0059311D01*
X0107430Y0059263D01*
X0107537Y0059211D01*
X0107642Y0059156D01*
X0107745Y0059097D01*
X0107845Y0059035D01*
X0107944Y0058970D01*
X0108041Y0058901D01*
X0108135Y0058830D01*
X0108226Y0058755D01*
X0108316Y0058677D01*
X0108402Y0058596D01*
X0108486Y0058512D01*
X0108567Y0058426D01*
X0108645Y0058336D01*
X0108720Y0058245D01*
X0108791Y0058151D01*
X0108860Y0058054D01*
X0108925Y0057955D01*
X0108987Y0057855D01*
X0109046Y0057752D01*
X0109101Y0057647D01*
X0109153Y0057540D01*
X0109201Y0057432D01*
X0109245Y0057322D01*
X0109286Y0057211D01*
X0109323Y0057099D01*
X0109356Y0056985D01*
X0109385Y0056870D01*
X0109411Y0056755D01*
X0109433Y0056638D01*
X0109450Y0056521D01*
X0109464Y0056404D01*
X0109474Y0056286D01*
X0109480Y0056167D01*
X0109482Y0056049D01*
X0109480Y0055931D01*
X0109474Y0055812D01*
X0109464Y0055694D01*
X0109450Y0055577D01*
X0109433Y0055460D01*
X0109411Y0055343D01*
X0109385Y0055228D01*
X0109356Y0055113D01*
X0109323Y0054999D01*
X0109286Y0054887D01*
X0109245Y0054776D01*
X0109201Y0054666D01*
X0109153Y0054558D01*
X0109101Y0054451D01*
X0109046Y0054346D01*
X0108987Y0054243D01*
X0108925Y0054143D01*
X0108860Y0054044D01*
X0108791Y0053947D01*
X0108720Y0053853D01*
X0108645Y0053762D01*
X0108567Y0053672D01*
X0108486Y0053586D01*
X0108402Y0053502D01*
X0108316Y0053421D01*
X0108226Y0053343D01*
X0108135Y0053268D01*
X0108041Y0053197D01*
X0107944Y0053128D01*
X0107845Y0053063D01*
X0107745Y0053001D01*
X0107642Y0052942D01*
X0107537Y0052887D01*
X0107430Y0052835D01*
X0107322Y0052787D01*
X0107212Y0052743D01*
X0107101Y0052702D01*
X0106989Y0052665D01*
X0106875Y0052632D01*
X0106760Y0052603D01*
X0106645Y0052577D01*
X0106528Y0052555D01*
X0106411Y0052538D01*
X0106294Y0052524D01*
X0106176Y0052514D01*
X0106057Y0052508D01*
X0105939Y0052506D01*
X0105821Y0052508D01*
X0105702Y0052514D01*
X0105584Y0052524D01*
X0105467Y0052538D01*
X0105350Y0052555D01*
X0105233Y0052577D01*
X0105118Y0052603D01*
X0105003Y0052632D01*
X0104889Y0052665D01*
X0104777Y0052702D01*
X0104666Y0052743D01*
X0104556Y0052787D01*
X0104448Y0052835D01*
X0104341Y0052887D01*
X0104236Y0052942D01*
X0104133Y0053001D01*
X0104033Y0053063D01*
X0103934Y0053128D01*
X0103837Y0053197D01*
X0103743Y0053268D01*
X0103652Y0053343D01*
X0103562Y0053421D01*
X0103476Y0053502D01*
X0103392Y0053586D01*
X0103311Y0053672D01*
X0103233Y0053762D01*
X0103158Y0053853D01*
X0103087Y0053947D01*
X0103018Y0054044D01*
X0102953Y0054143D01*
X0102891Y0054243D01*
X0102832Y0054346D01*
X0102777Y0054451D01*
X0102725Y0054558D01*
X0102677Y0054666D01*
X0102633Y0054776D01*
X0102592Y0054887D01*
X0102555Y0054999D01*
X0102522Y0055113D01*
X0102493Y0055228D01*
X0102467Y0055343D01*
X0102445Y0055460D01*
X0102428Y0055577D01*
X0102414Y0055694D01*
X0102404Y0055812D01*
X0102398Y0055931D01*
X0102396Y0056049D01*
X0190396Y0056049D02*
X0190398Y0056167D01*
X0190404Y0056286D01*
X0190414Y0056404D01*
X0190428Y0056521D01*
X0190445Y0056638D01*
X0190467Y0056755D01*
X0190493Y0056870D01*
X0190522Y0056985D01*
X0190555Y0057099D01*
X0190592Y0057211D01*
X0190633Y0057322D01*
X0190677Y0057432D01*
X0190725Y0057540D01*
X0190777Y0057647D01*
X0190832Y0057752D01*
X0190891Y0057855D01*
X0190953Y0057955D01*
X0191018Y0058054D01*
X0191087Y0058151D01*
X0191158Y0058245D01*
X0191233Y0058336D01*
X0191311Y0058426D01*
X0191392Y0058512D01*
X0191476Y0058596D01*
X0191562Y0058677D01*
X0191652Y0058755D01*
X0191743Y0058830D01*
X0191837Y0058901D01*
X0191934Y0058970D01*
X0192033Y0059035D01*
X0192133Y0059097D01*
X0192236Y0059156D01*
X0192341Y0059211D01*
X0192448Y0059263D01*
X0192556Y0059311D01*
X0192666Y0059355D01*
X0192777Y0059396D01*
X0192889Y0059433D01*
X0193003Y0059466D01*
X0193118Y0059495D01*
X0193233Y0059521D01*
X0193350Y0059543D01*
X0193467Y0059560D01*
X0193584Y0059574D01*
X0193702Y0059584D01*
X0193821Y0059590D01*
X0193939Y0059592D01*
X0194057Y0059590D01*
X0194176Y0059584D01*
X0194294Y0059574D01*
X0194411Y0059560D01*
X0194528Y0059543D01*
X0194645Y0059521D01*
X0194760Y0059495D01*
X0194875Y0059466D01*
X0194989Y0059433D01*
X0195101Y0059396D01*
X0195212Y0059355D01*
X0195322Y0059311D01*
X0195430Y0059263D01*
X0195537Y0059211D01*
X0195642Y0059156D01*
X0195745Y0059097D01*
X0195845Y0059035D01*
X0195944Y0058970D01*
X0196041Y0058901D01*
X0196135Y0058830D01*
X0196226Y0058755D01*
X0196316Y0058677D01*
X0196402Y0058596D01*
X0196486Y0058512D01*
X0196567Y0058426D01*
X0196645Y0058336D01*
X0196720Y0058245D01*
X0196791Y0058151D01*
X0196860Y0058054D01*
X0196925Y0057955D01*
X0196987Y0057855D01*
X0197046Y0057752D01*
X0197101Y0057647D01*
X0197153Y0057540D01*
X0197201Y0057432D01*
X0197245Y0057322D01*
X0197286Y0057211D01*
X0197323Y0057099D01*
X0197356Y0056985D01*
X0197385Y0056870D01*
X0197411Y0056755D01*
X0197433Y0056638D01*
X0197450Y0056521D01*
X0197464Y0056404D01*
X0197474Y0056286D01*
X0197480Y0056167D01*
X0197482Y0056049D01*
X0197480Y0055931D01*
X0197474Y0055812D01*
X0197464Y0055694D01*
X0197450Y0055577D01*
X0197433Y0055460D01*
X0197411Y0055343D01*
X0197385Y0055228D01*
X0197356Y0055113D01*
X0197323Y0054999D01*
X0197286Y0054887D01*
X0197245Y0054776D01*
X0197201Y0054666D01*
X0197153Y0054558D01*
X0197101Y0054451D01*
X0197046Y0054346D01*
X0196987Y0054243D01*
X0196925Y0054143D01*
X0196860Y0054044D01*
X0196791Y0053947D01*
X0196720Y0053853D01*
X0196645Y0053762D01*
X0196567Y0053672D01*
X0196486Y0053586D01*
X0196402Y0053502D01*
X0196316Y0053421D01*
X0196226Y0053343D01*
X0196135Y0053268D01*
X0196041Y0053197D01*
X0195944Y0053128D01*
X0195845Y0053063D01*
X0195745Y0053001D01*
X0195642Y0052942D01*
X0195537Y0052887D01*
X0195430Y0052835D01*
X0195322Y0052787D01*
X0195212Y0052743D01*
X0195101Y0052702D01*
X0194989Y0052665D01*
X0194875Y0052632D01*
X0194760Y0052603D01*
X0194645Y0052577D01*
X0194528Y0052555D01*
X0194411Y0052538D01*
X0194294Y0052524D01*
X0194176Y0052514D01*
X0194057Y0052508D01*
X0193939Y0052506D01*
X0193821Y0052508D01*
X0193702Y0052514D01*
X0193584Y0052524D01*
X0193467Y0052538D01*
X0193350Y0052555D01*
X0193233Y0052577D01*
X0193118Y0052603D01*
X0193003Y0052632D01*
X0192889Y0052665D01*
X0192777Y0052702D01*
X0192666Y0052743D01*
X0192556Y0052787D01*
X0192448Y0052835D01*
X0192341Y0052887D01*
X0192236Y0052942D01*
X0192133Y0053001D01*
X0192033Y0053063D01*
X0191934Y0053128D01*
X0191837Y0053197D01*
X0191743Y0053268D01*
X0191652Y0053343D01*
X0191562Y0053421D01*
X0191476Y0053502D01*
X0191392Y0053586D01*
X0191311Y0053672D01*
X0191233Y0053762D01*
X0191158Y0053853D01*
X0191087Y0053947D01*
X0191018Y0054044D01*
X0190953Y0054143D01*
X0190891Y0054243D01*
X0190832Y0054346D01*
X0190777Y0054451D01*
X0190725Y0054558D01*
X0190677Y0054666D01*
X0190633Y0054776D01*
X0190592Y0054887D01*
X0190555Y0054999D01*
X0190522Y0055113D01*
X0190493Y0055228D01*
X0190467Y0055343D01*
X0190445Y0055460D01*
X0190428Y0055577D01*
X0190414Y0055694D01*
X0190404Y0055812D01*
X0190398Y0055931D01*
X0190396Y0056049D01*
X0190396Y0032427D02*
X0190398Y0032545D01*
X0190404Y0032664D01*
X0190414Y0032782D01*
X0190428Y0032899D01*
X0190445Y0033016D01*
X0190467Y0033133D01*
X0190493Y0033248D01*
X0190522Y0033363D01*
X0190555Y0033477D01*
X0190592Y0033589D01*
X0190633Y0033700D01*
X0190677Y0033810D01*
X0190725Y0033918D01*
X0190777Y0034025D01*
X0190832Y0034130D01*
X0190891Y0034233D01*
X0190953Y0034333D01*
X0191018Y0034432D01*
X0191087Y0034529D01*
X0191158Y0034623D01*
X0191233Y0034714D01*
X0191311Y0034804D01*
X0191392Y0034890D01*
X0191476Y0034974D01*
X0191562Y0035055D01*
X0191652Y0035133D01*
X0191743Y0035208D01*
X0191837Y0035279D01*
X0191934Y0035348D01*
X0192033Y0035413D01*
X0192133Y0035475D01*
X0192236Y0035534D01*
X0192341Y0035589D01*
X0192448Y0035641D01*
X0192556Y0035689D01*
X0192666Y0035733D01*
X0192777Y0035774D01*
X0192889Y0035811D01*
X0193003Y0035844D01*
X0193118Y0035873D01*
X0193233Y0035899D01*
X0193350Y0035921D01*
X0193467Y0035938D01*
X0193584Y0035952D01*
X0193702Y0035962D01*
X0193821Y0035968D01*
X0193939Y0035970D01*
X0194057Y0035968D01*
X0194176Y0035962D01*
X0194294Y0035952D01*
X0194411Y0035938D01*
X0194528Y0035921D01*
X0194645Y0035899D01*
X0194760Y0035873D01*
X0194875Y0035844D01*
X0194989Y0035811D01*
X0195101Y0035774D01*
X0195212Y0035733D01*
X0195322Y0035689D01*
X0195430Y0035641D01*
X0195537Y0035589D01*
X0195642Y0035534D01*
X0195745Y0035475D01*
X0195845Y0035413D01*
X0195944Y0035348D01*
X0196041Y0035279D01*
X0196135Y0035208D01*
X0196226Y0035133D01*
X0196316Y0035055D01*
X0196402Y0034974D01*
X0196486Y0034890D01*
X0196567Y0034804D01*
X0196645Y0034714D01*
X0196720Y0034623D01*
X0196791Y0034529D01*
X0196860Y0034432D01*
X0196925Y0034333D01*
X0196987Y0034233D01*
X0197046Y0034130D01*
X0197101Y0034025D01*
X0197153Y0033918D01*
X0197201Y0033810D01*
X0197245Y0033700D01*
X0197286Y0033589D01*
X0197323Y0033477D01*
X0197356Y0033363D01*
X0197385Y0033248D01*
X0197411Y0033133D01*
X0197433Y0033016D01*
X0197450Y0032899D01*
X0197464Y0032782D01*
X0197474Y0032664D01*
X0197480Y0032545D01*
X0197482Y0032427D01*
X0197480Y0032309D01*
X0197474Y0032190D01*
X0197464Y0032072D01*
X0197450Y0031955D01*
X0197433Y0031838D01*
X0197411Y0031721D01*
X0197385Y0031606D01*
X0197356Y0031491D01*
X0197323Y0031377D01*
X0197286Y0031265D01*
X0197245Y0031154D01*
X0197201Y0031044D01*
X0197153Y0030936D01*
X0197101Y0030829D01*
X0197046Y0030724D01*
X0196987Y0030621D01*
X0196925Y0030521D01*
X0196860Y0030422D01*
X0196791Y0030325D01*
X0196720Y0030231D01*
X0196645Y0030140D01*
X0196567Y0030050D01*
X0196486Y0029964D01*
X0196402Y0029880D01*
X0196316Y0029799D01*
X0196226Y0029721D01*
X0196135Y0029646D01*
X0196041Y0029575D01*
X0195944Y0029506D01*
X0195845Y0029441D01*
X0195745Y0029379D01*
X0195642Y0029320D01*
X0195537Y0029265D01*
X0195430Y0029213D01*
X0195322Y0029165D01*
X0195212Y0029121D01*
X0195101Y0029080D01*
X0194989Y0029043D01*
X0194875Y0029010D01*
X0194760Y0028981D01*
X0194645Y0028955D01*
X0194528Y0028933D01*
X0194411Y0028916D01*
X0194294Y0028902D01*
X0194176Y0028892D01*
X0194057Y0028886D01*
X0193939Y0028884D01*
X0193821Y0028886D01*
X0193702Y0028892D01*
X0193584Y0028902D01*
X0193467Y0028916D01*
X0193350Y0028933D01*
X0193233Y0028955D01*
X0193118Y0028981D01*
X0193003Y0029010D01*
X0192889Y0029043D01*
X0192777Y0029080D01*
X0192666Y0029121D01*
X0192556Y0029165D01*
X0192448Y0029213D01*
X0192341Y0029265D01*
X0192236Y0029320D01*
X0192133Y0029379D01*
X0192033Y0029441D01*
X0191934Y0029506D01*
X0191837Y0029575D01*
X0191743Y0029646D01*
X0191652Y0029721D01*
X0191562Y0029799D01*
X0191476Y0029880D01*
X0191392Y0029964D01*
X0191311Y0030050D01*
X0191233Y0030140D01*
X0191158Y0030231D01*
X0191087Y0030325D01*
X0191018Y0030422D01*
X0190953Y0030521D01*
X0190891Y0030621D01*
X0190832Y0030724D01*
X0190777Y0030829D01*
X0190725Y0030936D01*
X0190677Y0031044D01*
X0190633Y0031154D01*
X0190592Y0031265D01*
X0190555Y0031377D01*
X0190522Y0031491D01*
X0190493Y0031606D01*
X0190467Y0031721D01*
X0190445Y0031838D01*
X0190428Y0031955D01*
X0190414Y0032072D01*
X0190404Y0032190D01*
X0190398Y0032309D01*
X0190396Y0032427D01*
X0278396Y0032427D02*
X0278398Y0032545D01*
X0278404Y0032664D01*
X0278414Y0032782D01*
X0278428Y0032899D01*
X0278445Y0033016D01*
X0278467Y0033133D01*
X0278493Y0033248D01*
X0278522Y0033363D01*
X0278555Y0033477D01*
X0278592Y0033589D01*
X0278633Y0033700D01*
X0278677Y0033810D01*
X0278725Y0033918D01*
X0278777Y0034025D01*
X0278832Y0034130D01*
X0278891Y0034233D01*
X0278953Y0034333D01*
X0279018Y0034432D01*
X0279087Y0034529D01*
X0279158Y0034623D01*
X0279233Y0034714D01*
X0279311Y0034804D01*
X0279392Y0034890D01*
X0279476Y0034974D01*
X0279562Y0035055D01*
X0279652Y0035133D01*
X0279743Y0035208D01*
X0279837Y0035279D01*
X0279934Y0035348D01*
X0280033Y0035413D01*
X0280133Y0035475D01*
X0280236Y0035534D01*
X0280341Y0035589D01*
X0280448Y0035641D01*
X0280556Y0035689D01*
X0280666Y0035733D01*
X0280777Y0035774D01*
X0280889Y0035811D01*
X0281003Y0035844D01*
X0281118Y0035873D01*
X0281233Y0035899D01*
X0281350Y0035921D01*
X0281467Y0035938D01*
X0281584Y0035952D01*
X0281702Y0035962D01*
X0281821Y0035968D01*
X0281939Y0035970D01*
X0282057Y0035968D01*
X0282176Y0035962D01*
X0282294Y0035952D01*
X0282411Y0035938D01*
X0282528Y0035921D01*
X0282645Y0035899D01*
X0282760Y0035873D01*
X0282875Y0035844D01*
X0282989Y0035811D01*
X0283101Y0035774D01*
X0283212Y0035733D01*
X0283322Y0035689D01*
X0283430Y0035641D01*
X0283537Y0035589D01*
X0283642Y0035534D01*
X0283745Y0035475D01*
X0283845Y0035413D01*
X0283944Y0035348D01*
X0284041Y0035279D01*
X0284135Y0035208D01*
X0284226Y0035133D01*
X0284316Y0035055D01*
X0284402Y0034974D01*
X0284486Y0034890D01*
X0284567Y0034804D01*
X0284645Y0034714D01*
X0284720Y0034623D01*
X0284791Y0034529D01*
X0284860Y0034432D01*
X0284925Y0034333D01*
X0284987Y0034233D01*
X0285046Y0034130D01*
X0285101Y0034025D01*
X0285153Y0033918D01*
X0285201Y0033810D01*
X0285245Y0033700D01*
X0285286Y0033589D01*
X0285323Y0033477D01*
X0285356Y0033363D01*
X0285385Y0033248D01*
X0285411Y0033133D01*
X0285433Y0033016D01*
X0285450Y0032899D01*
X0285464Y0032782D01*
X0285474Y0032664D01*
X0285480Y0032545D01*
X0285482Y0032427D01*
X0285480Y0032309D01*
X0285474Y0032190D01*
X0285464Y0032072D01*
X0285450Y0031955D01*
X0285433Y0031838D01*
X0285411Y0031721D01*
X0285385Y0031606D01*
X0285356Y0031491D01*
X0285323Y0031377D01*
X0285286Y0031265D01*
X0285245Y0031154D01*
X0285201Y0031044D01*
X0285153Y0030936D01*
X0285101Y0030829D01*
X0285046Y0030724D01*
X0284987Y0030621D01*
X0284925Y0030521D01*
X0284860Y0030422D01*
X0284791Y0030325D01*
X0284720Y0030231D01*
X0284645Y0030140D01*
X0284567Y0030050D01*
X0284486Y0029964D01*
X0284402Y0029880D01*
X0284316Y0029799D01*
X0284226Y0029721D01*
X0284135Y0029646D01*
X0284041Y0029575D01*
X0283944Y0029506D01*
X0283845Y0029441D01*
X0283745Y0029379D01*
X0283642Y0029320D01*
X0283537Y0029265D01*
X0283430Y0029213D01*
X0283322Y0029165D01*
X0283212Y0029121D01*
X0283101Y0029080D01*
X0282989Y0029043D01*
X0282875Y0029010D01*
X0282760Y0028981D01*
X0282645Y0028955D01*
X0282528Y0028933D01*
X0282411Y0028916D01*
X0282294Y0028902D01*
X0282176Y0028892D01*
X0282057Y0028886D01*
X0281939Y0028884D01*
X0281821Y0028886D01*
X0281702Y0028892D01*
X0281584Y0028902D01*
X0281467Y0028916D01*
X0281350Y0028933D01*
X0281233Y0028955D01*
X0281118Y0028981D01*
X0281003Y0029010D01*
X0280889Y0029043D01*
X0280777Y0029080D01*
X0280666Y0029121D01*
X0280556Y0029165D01*
X0280448Y0029213D01*
X0280341Y0029265D01*
X0280236Y0029320D01*
X0280133Y0029379D01*
X0280033Y0029441D01*
X0279934Y0029506D01*
X0279837Y0029575D01*
X0279743Y0029646D01*
X0279652Y0029721D01*
X0279562Y0029799D01*
X0279476Y0029880D01*
X0279392Y0029964D01*
X0279311Y0030050D01*
X0279233Y0030140D01*
X0279158Y0030231D01*
X0279087Y0030325D01*
X0279018Y0030422D01*
X0278953Y0030521D01*
X0278891Y0030621D01*
X0278832Y0030724D01*
X0278777Y0030829D01*
X0278725Y0030936D01*
X0278677Y0031044D01*
X0278633Y0031154D01*
X0278592Y0031265D01*
X0278555Y0031377D01*
X0278522Y0031491D01*
X0278493Y0031606D01*
X0278467Y0031721D01*
X0278445Y0031838D01*
X0278428Y0031955D01*
X0278414Y0032072D01*
X0278404Y0032190D01*
X0278398Y0032309D01*
X0278396Y0032427D01*
X0278396Y0056049D02*
X0278398Y0056167D01*
X0278404Y0056286D01*
X0278414Y0056404D01*
X0278428Y0056521D01*
X0278445Y0056638D01*
X0278467Y0056755D01*
X0278493Y0056870D01*
X0278522Y0056985D01*
X0278555Y0057099D01*
X0278592Y0057211D01*
X0278633Y0057322D01*
X0278677Y0057432D01*
X0278725Y0057540D01*
X0278777Y0057647D01*
X0278832Y0057752D01*
X0278891Y0057855D01*
X0278953Y0057955D01*
X0279018Y0058054D01*
X0279087Y0058151D01*
X0279158Y0058245D01*
X0279233Y0058336D01*
X0279311Y0058426D01*
X0279392Y0058512D01*
X0279476Y0058596D01*
X0279562Y0058677D01*
X0279652Y0058755D01*
X0279743Y0058830D01*
X0279837Y0058901D01*
X0279934Y0058970D01*
X0280033Y0059035D01*
X0280133Y0059097D01*
X0280236Y0059156D01*
X0280341Y0059211D01*
X0280448Y0059263D01*
X0280556Y0059311D01*
X0280666Y0059355D01*
X0280777Y0059396D01*
X0280889Y0059433D01*
X0281003Y0059466D01*
X0281118Y0059495D01*
X0281233Y0059521D01*
X0281350Y0059543D01*
X0281467Y0059560D01*
X0281584Y0059574D01*
X0281702Y0059584D01*
X0281821Y0059590D01*
X0281939Y0059592D01*
X0282057Y0059590D01*
X0282176Y0059584D01*
X0282294Y0059574D01*
X0282411Y0059560D01*
X0282528Y0059543D01*
X0282645Y0059521D01*
X0282760Y0059495D01*
X0282875Y0059466D01*
X0282989Y0059433D01*
X0283101Y0059396D01*
X0283212Y0059355D01*
X0283322Y0059311D01*
X0283430Y0059263D01*
X0283537Y0059211D01*
X0283642Y0059156D01*
X0283745Y0059097D01*
X0283845Y0059035D01*
X0283944Y0058970D01*
X0284041Y0058901D01*
X0284135Y0058830D01*
X0284226Y0058755D01*
X0284316Y0058677D01*
X0284402Y0058596D01*
X0284486Y0058512D01*
X0284567Y0058426D01*
X0284645Y0058336D01*
X0284720Y0058245D01*
X0284791Y0058151D01*
X0284860Y0058054D01*
X0284925Y0057955D01*
X0284987Y0057855D01*
X0285046Y0057752D01*
X0285101Y0057647D01*
X0285153Y0057540D01*
X0285201Y0057432D01*
X0285245Y0057322D01*
X0285286Y0057211D01*
X0285323Y0057099D01*
X0285356Y0056985D01*
X0285385Y0056870D01*
X0285411Y0056755D01*
X0285433Y0056638D01*
X0285450Y0056521D01*
X0285464Y0056404D01*
X0285474Y0056286D01*
X0285480Y0056167D01*
X0285482Y0056049D01*
X0285480Y0055931D01*
X0285474Y0055812D01*
X0285464Y0055694D01*
X0285450Y0055577D01*
X0285433Y0055460D01*
X0285411Y0055343D01*
X0285385Y0055228D01*
X0285356Y0055113D01*
X0285323Y0054999D01*
X0285286Y0054887D01*
X0285245Y0054776D01*
X0285201Y0054666D01*
X0285153Y0054558D01*
X0285101Y0054451D01*
X0285046Y0054346D01*
X0284987Y0054243D01*
X0284925Y0054143D01*
X0284860Y0054044D01*
X0284791Y0053947D01*
X0284720Y0053853D01*
X0284645Y0053762D01*
X0284567Y0053672D01*
X0284486Y0053586D01*
X0284402Y0053502D01*
X0284316Y0053421D01*
X0284226Y0053343D01*
X0284135Y0053268D01*
X0284041Y0053197D01*
X0283944Y0053128D01*
X0283845Y0053063D01*
X0283745Y0053001D01*
X0283642Y0052942D01*
X0283537Y0052887D01*
X0283430Y0052835D01*
X0283322Y0052787D01*
X0283212Y0052743D01*
X0283101Y0052702D01*
X0282989Y0052665D01*
X0282875Y0052632D01*
X0282760Y0052603D01*
X0282645Y0052577D01*
X0282528Y0052555D01*
X0282411Y0052538D01*
X0282294Y0052524D01*
X0282176Y0052514D01*
X0282057Y0052508D01*
X0281939Y0052506D01*
X0281821Y0052508D01*
X0281702Y0052514D01*
X0281584Y0052524D01*
X0281467Y0052538D01*
X0281350Y0052555D01*
X0281233Y0052577D01*
X0281118Y0052603D01*
X0281003Y0052632D01*
X0280889Y0052665D01*
X0280777Y0052702D01*
X0280666Y0052743D01*
X0280556Y0052787D01*
X0280448Y0052835D01*
X0280341Y0052887D01*
X0280236Y0052942D01*
X0280133Y0053001D01*
X0280033Y0053063D01*
X0279934Y0053128D01*
X0279837Y0053197D01*
X0279743Y0053268D01*
X0279652Y0053343D01*
X0279562Y0053421D01*
X0279476Y0053502D01*
X0279392Y0053586D01*
X0279311Y0053672D01*
X0279233Y0053762D01*
X0279158Y0053853D01*
X0279087Y0053947D01*
X0279018Y0054044D01*
X0278953Y0054143D01*
X0278891Y0054243D01*
X0278832Y0054346D01*
X0278777Y0054451D01*
X0278725Y0054558D01*
X0278677Y0054666D01*
X0278633Y0054776D01*
X0278592Y0054887D01*
X0278555Y0054999D01*
X0278522Y0055113D01*
X0278493Y0055228D01*
X0278467Y0055343D01*
X0278445Y0055460D01*
X0278428Y0055577D01*
X0278414Y0055694D01*
X0278404Y0055812D01*
X0278398Y0055931D01*
X0278396Y0056049D01*
X0393067Y0033096D02*
X0393069Y0033254D01*
X0393075Y0033411D01*
X0393085Y0033569D01*
X0393099Y0033726D01*
X0393117Y0033882D01*
X0393138Y0034039D01*
X0393164Y0034194D01*
X0393194Y0034349D01*
X0393227Y0034503D01*
X0393265Y0034656D01*
X0393306Y0034809D01*
X0393351Y0034960D01*
X0393400Y0035110D01*
X0393453Y0035258D01*
X0393509Y0035406D01*
X0393570Y0035551D01*
X0393633Y0035696D01*
X0393701Y0035838D01*
X0393772Y0035979D01*
X0393846Y0036118D01*
X0393924Y0036255D01*
X0394006Y0036390D01*
X0394090Y0036523D01*
X0394179Y0036654D01*
X0394270Y0036782D01*
X0394365Y0036909D01*
X0394462Y0037032D01*
X0394563Y0037154D01*
X0394667Y0037272D01*
X0394774Y0037388D01*
X0394884Y0037501D01*
X0394996Y0037612D01*
X0395112Y0037719D01*
X0395230Y0037824D01*
X0395350Y0037926D01*
X0395473Y0038024D01*
X0395599Y0038120D01*
X0395727Y0038212D01*
X0395857Y0038301D01*
X0395989Y0038387D01*
X0396124Y0038469D01*
X0396261Y0038548D01*
X0396399Y0038623D01*
X0396539Y0038695D01*
X0396682Y0038763D01*
X0396825Y0038828D01*
X0396971Y0038889D01*
X0397118Y0038946D01*
X0397266Y0039000D01*
X0397416Y0039050D01*
X0397566Y0039096D01*
X0397718Y0039138D01*
X0397871Y0039177D01*
X0398025Y0039211D01*
X0398180Y0039242D01*
X0398335Y0039268D01*
X0398491Y0039291D01*
X0398648Y0039310D01*
X0398805Y0039325D01*
X0398962Y0039336D01*
X0399120Y0039343D01*
X0399278Y0039346D01*
X0399435Y0039345D01*
X0399593Y0039340D01*
X0399750Y0039331D01*
X0399908Y0039318D01*
X0400064Y0039301D01*
X0400221Y0039280D01*
X0400376Y0039256D01*
X0400531Y0039227D01*
X0400686Y0039194D01*
X0400839Y0039158D01*
X0400992Y0039117D01*
X0401143Y0039073D01*
X0401293Y0039025D01*
X0401442Y0038974D01*
X0401590Y0038918D01*
X0401736Y0038859D01*
X0401881Y0038796D01*
X0402024Y0038729D01*
X0402165Y0038659D01*
X0402304Y0038586D01*
X0402442Y0038509D01*
X0402578Y0038428D01*
X0402711Y0038344D01*
X0402842Y0038257D01*
X0402971Y0038166D01*
X0403098Y0038072D01*
X0403223Y0037975D01*
X0403344Y0037875D01*
X0403464Y0037772D01*
X0403580Y0037666D01*
X0403694Y0037557D01*
X0403806Y0037445D01*
X0403914Y0037331D01*
X0404019Y0037213D01*
X0404122Y0037093D01*
X0404221Y0036971D01*
X0404317Y0036846D01*
X0404410Y0036718D01*
X0404500Y0036589D01*
X0404586Y0036457D01*
X0404670Y0036323D01*
X0404749Y0036187D01*
X0404826Y0036049D01*
X0404898Y0035909D01*
X0404967Y0035767D01*
X0405033Y0035624D01*
X0405095Y0035479D01*
X0405153Y0035332D01*
X0405208Y0035184D01*
X0405259Y0035035D01*
X0405306Y0034884D01*
X0405349Y0034733D01*
X0405388Y0034580D01*
X0405424Y0034426D01*
X0405455Y0034272D01*
X0405483Y0034117D01*
X0405507Y0033961D01*
X0405527Y0033804D01*
X0405543Y0033647D01*
X0405555Y0033490D01*
X0405563Y0033333D01*
X0405567Y0033175D01*
X0405567Y0033017D01*
X0405563Y0032859D01*
X0405555Y0032702D01*
X0405543Y0032545D01*
X0405527Y0032388D01*
X0405507Y0032231D01*
X0405483Y0032075D01*
X0405455Y0031920D01*
X0405424Y0031766D01*
X0405388Y0031612D01*
X0405349Y0031459D01*
X0405306Y0031308D01*
X0405259Y0031157D01*
X0405208Y0031008D01*
X0405153Y0030860D01*
X0405095Y0030713D01*
X0405033Y0030568D01*
X0404967Y0030425D01*
X0404898Y0030283D01*
X0404826Y0030143D01*
X0404749Y0030005D01*
X0404670Y0029869D01*
X0404586Y0029735D01*
X0404500Y0029603D01*
X0404410Y0029474D01*
X0404317Y0029346D01*
X0404221Y0029221D01*
X0404122Y0029099D01*
X0404019Y0028979D01*
X0403914Y0028861D01*
X0403806Y0028747D01*
X0403694Y0028635D01*
X0403580Y0028526D01*
X0403464Y0028420D01*
X0403344Y0028317D01*
X0403223Y0028217D01*
X0403098Y0028120D01*
X0402971Y0028026D01*
X0402842Y0027935D01*
X0402711Y0027848D01*
X0402578Y0027764D01*
X0402442Y0027683D01*
X0402304Y0027606D01*
X0402165Y0027533D01*
X0402024Y0027463D01*
X0401881Y0027396D01*
X0401736Y0027333D01*
X0401590Y0027274D01*
X0401442Y0027218D01*
X0401293Y0027167D01*
X0401143Y0027119D01*
X0400992Y0027075D01*
X0400839Y0027034D01*
X0400686Y0026998D01*
X0400531Y0026965D01*
X0400376Y0026936D01*
X0400221Y0026912D01*
X0400064Y0026891D01*
X0399908Y0026874D01*
X0399750Y0026861D01*
X0399593Y0026852D01*
X0399435Y0026847D01*
X0399278Y0026846D01*
X0399120Y0026849D01*
X0398962Y0026856D01*
X0398805Y0026867D01*
X0398648Y0026882D01*
X0398491Y0026901D01*
X0398335Y0026924D01*
X0398180Y0026950D01*
X0398025Y0026981D01*
X0397871Y0027015D01*
X0397718Y0027054D01*
X0397566Y0027096D01*
X0397416Y0027142D01*
X0397266Y0027192D01*
X0397118Y0027246D01*
X0396971Y0027303D01*
X0396825Y0027364D01*
X0396682Y0027429D01*
X0396539Y0027497D01*
X0396399Y0027569D01*
X0396261Y0027644D01*
X0396124Y0027723D01*
X0395989Y0027805D01*
X0395857Y0027891D01*
X0395727Y0027980D01*
X0395599Y0028072D01*
X0395473Y0028168D01*
X0395350Y0028266D01*
X0395230Y0028368D01*
X0395112Y0028473D01*
X0394996Y0028580D01*
X0394884Y0028691D01*
X0394774Y0028804D01*
X0394667Y0028920D01*
X0394563Y0029038D01*
X0394462Y0029160D01*
X0394365Y0029283D01*
X0394270Y0029410D01*
X0394179Y0029538D01*
X0394090Y0029669D01*
X0394006Y0029802D01*
X0393924Y0029937D01*
X0393846Y0030074D01*
X0393772Y0030213D01*
X0393701Y0030354D01*
X0393633Y0030496D01*
X0393570Y0030641D01*
X0393509Y0030786D01*
X0393453Y0030934D01*
X0393400Y0031082D01*
X0393351Y0031232D01*
X0393306Y0031383D01*
X0393265Y0031536D01*
X0393227Y0031689D01*
X0393194Y0031843D01*
X0393164Y0031998D01*
X0393138Y0032153D01*
X0393117Y0032310D01*
X0393099Y0032466D01*
X0393085Y0032623D01*
X0393075Y0032781D01*
X0393069Y0032938D01*
X0393067Y0033096D01*
X0368254Y0354553D02*
X0368256Y0354646D01*
X0368262Y0354738D01*
X0368272Y0354830D01*
X0368286Y0354921D01*
X0368303Y0355012D01*
X0368325Y0355102D01*
X0368350Y0355191D01*
X0368379Y0355279D01*
X0368412Y0355365D01*
X0368449Y0355450D01*
X0368489Y0355534D01*
X0368533Y0355615D01*
X0368580Y0355695D01*
X0368630Y0355773D01*
X0368684Y0355848D01*
X0368741Y0355921D01*
X0368801Y0355991D01*
X0368864Y0356059D01*
X0368930Y0356124D01*
X0368998Y0356186D01*
X0369069Y0356246D01*
X0369143Y0356302D01*
X0369219Y0356355D01*
X0369297Y0356404D01*
X0369377Y0356451D01*
X0369459Y0356493D01*
X0369543Y0356533D01*
X0369628Y0356568D01*
X0369715Y0356600D01*
X0369803Y0356629D01*
X0369892Y0356653D01*
X0369982Y0356674D01*
X0370073Y0356690D01*
X0370165Y0356703D01*
X0370257Y0356712D01*
X0370350Y0356717D01*
X0370442Y0356718D01*
X0370535Y0356715D01*
X0370627Y0356708D01*
X0370719Y0356697D01*
X0370810Y0356682D01*
X0370901Y0356664D01*
X0370991Y0356641D01*
X0371079Y0356615D01*
X0371167Y0356585D01*
X0371253Y0356551D01*
X0371337Y0356514D01*
X0371420Y0356472D01*
X0371501Y0356428D01*
X0371581Y0356380D01*
X0371658Y0356329D01*
X0371732Y0356274D01*
X0371805Y0356216D01*
X0371875Y0356156D01*
X0371942Y0356092D01*
X0372006Y0356026D01*
X0372068Y0355956D01*
X0372126Y0355885D01*
X0372181Y0355811D01*
X0372233Y0355734D01*
X0372282Y0355655D01*
X0372328Y0355575D01*
X0372370Y0355492D01*
X0372408Y0355408D01*
X0372443Y0355322D01*
X0372474Y0355235D01*
X0372501Y0355147D01*
X0372524Y0355057D01*
X0372544Y0354967D01*
X0372560Y0354876D01*
X0372572Y0354784D01*
X0372580Y0354692D01*
X0372584Y0354599D01*
X0372584Y0354507D01*
X0372580Y0354414D01*
X0372572Y0354322D01*
X0372560Y0354230D01*
X0372544Y0354139D01*
X0372524Y0354049D01*
X0372501Y0353959D01*
X0372474Y0353871D01*
X0372443Y0353784D01*
X0372408Y0353698D01*
X0372370Y0353614D01*
X0372328Y0353531D01*
X0372282Y0353451D01*
X0372233Y0353372D01*
X0372181Y0353295D01*
X0372126Y0353221D01*
X0372068Y0353150D01*
X0372006Y0353080D01*
X0371942Y0353014D01*
X0371875Y0352950D01*
X0371805Y0352890D01*
X0371732Y0352832D01*
X0371658Y0352777D01*
X0371581Y0352726D01*
X0371502Y0352678D01*
X0371420Y0352634D01*
X0371337Y0352592D01*
X0371253Y0352555D01*
X0371167Y0352521D01*
X0371079Y0352491D01*
X0370991Y0352465D01*
X0370901Y0352442D01*
X0370810Y0352424D01*
X0370719Y0352409D01*
X0370627Y0352398D01*
X0370535Y0352391D01*
X0370442Y0352388D01*
X0370350Y0352389D01*
X0370257Y0352394D01*
X0370165Y0352403D01*
X0370073Y0352416D01*
X0369982Y0352432D01*
X0369892Y0352453D01*
X0369803Y0352477D01*
X0369715Y0352506D01*
X0369628Y0352538D01*
X0369543Y0352573D01*
X0369459Y0352613D01*
X0369377Y0352655D01*
X0369297Y0352702D01*
X0369219Y0352751D01*
X0369143Y0352804D01*
X0369069Y0352860D01*
X0368998Y0352920D01*
X0368930Y0352982D01*
X0368864Y0353047D01*
X0368801Y0353115D01*
X0368741Y0353185D01*
X0368684Y0353258D01*
X0368630Y0353333D01*
X0368580Y0353411D01*
X0368533Y0353491D01*
X0368489Y0353572D01*
X0368449Y0353656D01*
X0368412Y0353741D01*
X0368379Y0353827D01*
X0368350Y0353915D01*
X0368325Y0354004D01*
X0368303Y0354094D01*
X0368286Y0354185D01*
X0368272Y0354276D01*
X0368262Y0354368D01*
X0368256Y0354460D01*
X0368254Y0354553D01*
X0393067Y0434671D02*
X0393069Y0434829D01*
X0393075Y0434986D01*
X0393085Y0435144D01*
X0393099Y0435301D01*
X0393117Y0435457D01*
X0393138Y0435614D01*
X0393164Y0435769D01*
X0393194Y0435924D01*
X0393227Y0436078D01*
X0393265Y0436231D01*
X0393306Y0436384D01*
X0393351Y0436535D01*
X0393400Y0436685D01*
X0393453Y0436833D01*
X0393509Y0436981D01*
X0393570Y0437126D01*
X0393633Y0437271D01*
X0393701Y0437413D01*
X0393772Y0437554D01*
X0393846Y0437693D01*
X0393924Y0437830D01*
X0394006Y0437965D01*
X0394090Y0438098D01*
X0394179Y0438229D01*
X0394270Y0438357D01*
X0394365Y0438484D01*
X0394462Y0438607D01*
X0394563Y0438729D01*
X0394667Y0438847D01*
X0394774Y0438963D01*
X0394884Y0439076D01*
X0394996Y0439187D01*
X0395112Y0439294D01*
X0395230Y0439399D01*
X0395350Y0439501D01*
X0395473Y0439599D01*
X0395599Y0439695D01*
X0395727Y0439787D01*
X0395857Y0439876D01*
X0395989Y0439962D01*
X0396124Y0440044D01*
X0396261Y0440123D01*
X0396399Y0440198D01*
X0396539Y0440270D01*
X0396682Y0440338D01*
X0396825Y0440403D01*
X0396971Y0440464D01*
X0397118Y0440521D01*
X0397266Y0440575D01*
X0397416Y0440625D01*
X0397566Y0440671D01*
X0397718Y0440713D01*
X0397871Y0440752D01*
X0398025Y0440786D01*
X0398180Y0440817D01*
X0398335Y0440843D01*
X0398491Y0440866D01*
X0398648Y0440885D01*
X0398805Y0440900D01*
X0398962Y0440911D01*
X0399120Y0440918D01*
X0399278Y0440921D01*
X0399435Y0440920D01*
X0399593Y0440915D01*
X0399750Y0440906D01*
X0399908Y0440893D01*
X0400064Y0440876D01*
X0400221Y0440855D01*
X0400376Y0440831D01*
X0400531Y0440802D01*
X0400686Y0440769D01*
X0400839Y0440733D01*
X0400992Y0440692D01*
X0401143Y0440648D01*
X0401293Y0440600D01*
X0401442Y0440549D01*
X0401590Y0440493D01*
X0401736Y0440434D01*
X0401881Y0440371D01*
X0402024Y0440304D01*
X0402165Y0440234D01*
X0402304Y0440161D01*
X0402442Y0440084D01*
X0402578Y0440003D01*
X0402711Y0439919D01*
X0402842Y0439832D01*
X0402971Y0439741D01*
X0403098Y0439647D01*
X0403223Y0439550D01*
X0403344Y0439450D01*
X0403464Y0439347D01*
X0403580Y0439241D01*
X0403694Y0439132D01*
X0403806Y0439020D01*
X0403914Y0438906D01*
X0404019Y0438788D01*
X0404122Y0438668D01*
X0404221Y0438546D01*
X0404317Y0438421D01*
X0404410Y0438293D01*
X0404500Y0438164D01*
X0404586Y0438032D01*
X0404670Y0437898D01*
X0404749Y0437762D01*
X0404826Y0437624D01*
X0404898Y0437484D01*
X0404967Y0437342D01*
X0405033Y0437199D01*
X0405095Y0437054D01*
X0405153Y0436907D01*
X0405208Y0436759D01*
X0405259Y0436610D01*
X0405306Y0436459D01*
X0405349Y0436308D01*
X0405388Y0436155D01*
X0405424Y0436001D01*
X0405455Y0435847D01*
X0405483Y0435692D01*
X0405507Y0435536D01*
X0405527Y0435379D01*
X0405543Y0435222D01*
X0405555Y0435065D01*
X0405563Y0434908D01*
X0405567Y0434750D01*
X0405567Y0434592D01*
X0405563Y0434434D01*
X0405555Y0434277D01*
X0405543Y0434120D01*
X0405527Y0433963D01*
X0405507Y0433806D01*
X0405483Y0433650D01*
X0405455Y0433495D01*
X0405424Y0433341D01*
X0405388Y0433187D01*
X0405349Y0433034D01*
X0405306Y0432883D01*
X0405259Y0432732D01*
X0405208Y0432583D01*
X0405153Y0432435D01*
X0405095Y0432288D01*
X0405033Y0432143D01*
X0404967Y0432000D01*
X0404898Y0431858D01*
X0404826Y0431718D01*
X0404749Y0431580D01*
X0404670Y0431444D01*
X0404586Y0431310D01*
X0404500Y0431178D01*
X0404410Y0431049D01*
X0404317Y0430921D01*
X0404221Y0430796D01*
X0404122Y0430674D01*
X0404019Y0430554D01*
X0403914Y0430436D01*
X0403806Y0430322D01*
X0403694Y0430210D01*
X0403580Y0430101D01*
X0403464Y0429995D01*
X0403344Y0429892D01*
X0403223Y0429792D01*
X0403098Y0429695D01*
X0402971Y0429601D01*
X0402842Y0429510D01*
X0402711Y0429423D01*
X0402578Y0429339D01*
X0402442Y0429258D01*
X0402304Y0429181D01*
X0402165Y0429108D01*
X0402024Y0429038D01*
X0401881Y0428971D01*
X0401736Y0428908D01*
X0401590Y0428849D01*
X0401442Y0428793D01*
X0401293Y0428742D01*
X0401143Y0428694D01*
X0400992Y0428650D01*
X0400839Y0428609D01*
X0400686Y0428573D01*
X0400531Y0428540D01*
X0400376Y0428511D01*
X0400221Y0428487D01*
X0400064Y0428466D01*
X0399908Y0428449D01*
X0399750Y0428436D01*
X0399593Y0428427D01*
X0399435Y0428422D01*
X0399278Y0428421D01*
X0399120Y0428424D01*
X0398962Y0428431D01*
X0398805Y0428442D01*
X0398648Y0428457D01*
X0398491Y0428476D01*
X0398335Y0428499D01*
X0398180Y0428525D01*
X0398025Y0428556D01*
X0397871Y0428590D01*
X0397718Y0428629D01*
X0397566Y0428671D01*
X0397416Y0428717D01*
X0397266Y0428767D01*
X0397118Y0428821D01*
X0396971Y0428878D01*
X0396825Y0428939D01*
X0396682Y0429004D01*
X0396539Y0429072D01*
X0396399Y0429144D01*
X0396261Y0429219D01*
X0396124Y0429298D01*
X0395989Y0429380D01*
X0395857Y0429466D01*
X0395727Y0429555D01*
X0395599Y0429647D01*
X0395473Y0429743D01*
X0395350Y0429841D01*
X0395230Y0429943D01*
X0395112Y0430048D01*
X0394996Y0430155D01*
X0394884Y0430266D01*
X0394774Y0430379D01*
X0394667Y0430495D01*
X0394563Y0430613D01*
X0394462Y0430735D01*
X0394365Y0430858D01*
X0394270Y0430985D01*
X0394179Y0431113D01*
X0394090Y0431244D01*
X0394006Y0431377D01*
X0393924Y0431512D01*
X0393846Y0431649D01*
X0393772Y0431788D01*
X0393701Y0431929D01*
X0393633Y0432071D01*
X0393570Y0432216D01*
X0393509Y0432361D01*
X0393453Y0432509D01*
X0393400Y0432657D01*
X0393351Y0432807D01*
X0393306Y0432958D01*
X0393265Y0433111D01*
X0393227Y0433264D01*
X0393194Y0433418D01*
X0393164Y0433573D01*
X0393138Y0433728D01*
X0393117Y0433885D01*
X0393099Y0434041D01*
X0393085Y0434198D01*
X0393075Y0434356D01*
X0393069Y0434513D01*
X0393067Y0434671D01*
X0106246Y0354553D02*
X0106248Y0354622D01*
X0106254Y0354690D01*
X0106264Y0354758D01*
X0106278Y0354825D01*
X0106296Y0354892D01*
X0106317Y0354957D01*
X0106343Y0355021D01*
X0106372Y0355083D01*
X0106404Y0355143D01*
X0106440Y0355202D01*
X0106480Y0355258D01*
X0106522Y0355312D01*
X0106568Y0355363D01*
X0106617Y0355412D01*
X0106668Y0355458D01*
X0106722Y0355500D01*
X0106778Y0355540D01*
X0106836Y0355576D01*
X0106897Y0355608D01*
X0106959Y0355637D01*
X0107023Y0355663D01*
X0107088Y0355684D01*
X0107155Y0355702D01*
X0107222Y0355716D01*
X0107290Y0355726D01*
X0107358Y0355732D01*
X0107427Y0355734D01*
X0107496Y0355732D01*
X0107564Y0355726D01*
X0107632Y0355716D01*
X0107699Y0355702D01*
X0107766Y0355684D01*
X0107831Y0355663D01*
X0107895Y0355637D01*
X0107957Y0355608D01*
X0108017Y0355576D01*
X0108076Y0355540D01*
X0108132Y0355500D01*
X0108186Y0355458D01*
X0108237Y0355412D01*
X0108286Y0355363D01*
X0108332Y0355312D01*
X0108374Y0355258D01*
X0108414Y0355202D01*
X0108450Y0355143D01*
X0108482Y0355083D01*
X0108511Y0355021D01*
X0108537Y0354957D01*
X0108558Y0354892D01*
X0108576Y0354825D01*
X0108590Y0354758D01*
X0108600Y0354690D01*
X0108606Y0354622D01*
X0108608Y0354553D01*
X0108606Y0354484D01*
X0108600Y0354416D01*
X0108590Y0354348D01*
X0108576Y0354281D01*
X0108558Y0354214D01*
X0108537Y0354149D01*
X0108511Y0354085D01*
X0108482Y0354023D01*
X0108450Y0353962D01*
X0108414Y0353904D01*
X0108374Y0353848D01*
X0108332Y0353794D01*
X0108286Y0353743D01*
X0108237Y0353694D01*
X0108186Y0353648D01*
X0108132Y0353606D01*
X0108076Y0353566D01*
X0108018Y0353530D01*
X0107957Y0353498D01*
X0107895Y0353469D01*
X0107831Y0353443D01*
X0107766Y0353422D01*
X0107699Y0353404D01*
X0107632Y0353390D01*
X0107564Y0353380D01*
X0107496Y0353374D01*
X0107427Y0353372D01*
X0107358Y0353374D01*
X0107290Y0353380D01*
X0107222Y0353390D01*
X0107155Y0353404D01*
X0107088Y0353422D01*
X0107023Y0353443D01*
X0106959Y0353469D01*
X0106897Y0353498D01*
X0106836Y0353530D01*
X0106778Y0353566D01*
X0106722Y0353606D01*
X0106668Y0353648D01*
X0106617Y0353694D01*
X0106568Y0353743D01*
X0106522Y0353794D01*
X0106480Y0353848D01*
X0106440Y0353904D01*
X0106404Y0353962D01*
X0106372Y0354023D01*
X0106343Y0354085D01*
X0106317Y0354149D01*
X0106296Y0354214D01*
X0106278Y0354281D01*
X0106264Y0354348D01*
X0106254Y0354416D01*
X0106248Y0354484D01*
X0106246Y0354553D01*
X0011177Y0434671D02*
X0011179Y0434829D01*
X0011185Y0434986D01*
X0011195Y0435144D01*
X0011209Y0435301D01*
X0011227Y0435457D01*
X0011248Y0435614D01*
X0011274Y0435769D01*
X0011304Y0435924D01*
X0011337Y0436078D01*
X0011375Y0436231D01*
X0011416Y0436384D01*
X0011461Y0436535D01*
X0011510Y0436685D01*
X0011563Y0436833D01*
X0011619Y0436981D01*
X0011680Y0437126D01*
X0011743Y0437271D01*
X0011811Y0437413D01*
X0011882Y0437554D01*
X0011956Y0437693D01*
X0012034Y0437830D01*
X0012116Y0437965D01*
X0012200Y0438098D01*
X0012289Y0438229D01*
X0012380Y0438357D01*
X0012475Y0438484D01*
X0012572Y0438607D01*
X0012673Y0438729D01*
X0012777Y0438847D01*
X0012884Y0438963D01*
X0012994Y0439076D01*
X0013106Y0439187D01*
X0013222Y0439294D01*
X0013340Y0439399D01*
X0013460Y0439501D01*
X0013583Y0439599D01*
X0013709Y0439695D01*
X0013837Y0439787D01*
X0013967Y0439876D01*
X0014099Y0439962D01*
X0014234Y0440044D01*
X0014371Y0440123D01*
X0014509Y0440198D01*
X0014649Y0440270D01*
X0014792Y0440338D01*
X0014935Y0440403D01*
X0015081Y0440464D01*
X0015228Y0440521D01*
X0015376Y0440575D01*
X0015526Y0440625D01*
X0015676Y0440671D01*
X0015828Y0440713D01*
X0015981Y0440752D01*
X0016135Y0440786D01*
X0016290Y0440817D01*
X0016445Y0440843D01*
X0016601Y0440866D01*
X0016758Y0440885D01*
X0016915Y0440900D01*
X0017072Y0440911D01*
X0017230Y0440918D01*
X0017388Y0440921D01*
X0017545Y0440920D01*
X0017703Y0440915D01*
X0017860Y0440906D01*
X0018018Y0440893D01*
X0018174Y0440876D01*
X0018331Y0440855D01*
X0018486Y0440831D01*
X0018641Y0440802D01*
X0018796Y0440769D01*
X0018949Y0440733D01*
X0019102Y0440692D01*
X0019253Y0440648D01*
X0019403Y0440600D01*
X0019552Y0440549D01*
X0019700Y0440493D01*
X0019846Y0440434D01*
X0019991Y0440371D01*
X0020134Y0440304D01*
X0020275Y0440234D01*
X0020414Y0440161D01*
X0020552Y0440084D01*
X0020688Y0440003D01*
X0020821Y0439919D01*
X0020952Y0439832D01*
X0021081Y0439741D01*
X0021208Y0439647D01*
X0021333Y0439550D01*
X0021454Y0439450D01*
X0021574Y0439347D01*
X0021690Y0439241D01*
X0021804Y0439132D01*
X0021916Y0439020D01*
X0022024Y0438906D01*
X0022129Y0438788D01*
X0022232Y0438668D01*
X0022331Y0438546D01*
X0022427Y0438421D01*
X0022520Y0438293D01*
X0022610Y0438164D01*
X0022696Y0438032D01*
X0022780Y0437898D01*
X0022859Y0437762D01*
X0022936Y0437624D01*
X0023008Y0437484D01*
X0023077Y0437342D01*
X0023143Y0437199D01*
X0023205Y0437054D01*
X0023263Y0436907D01*
X0023318Y0436759D01*
X0023369Y0436610D01*
X0023416Y0436459D01*
X0023459Y0436308D01*
X0023498Y0436155D01*
X0023534Y0436001D01*
X0023565Y0435847D01*
X0023593Y0435692D01*
X0023617Y0435536D01*
X0023637Y0435379D01*
X0023653Y0435222D01*
X0023665Y0435065D01*
X0023673Y0434908D01*
X0023677Y0434750D01*
X0023677Y0434592D01*
X0023673Y0434434D01*
X0023665Y0434277D01*
X0023653Y0434120D01*
X0023637Y0433963D01*
X0023617Y0433806D01*
X0023593Y0433650D01*
X0023565Y0433495D01*
X0023534Y0433341D01*
X0023498Y0433187D01*
X0023459Y0433034D01*
X0023416Y0432883D01*
X0023369Y0432732D01*
X0023318Y0432583D01*
X0023263Y0432435D01*
X0023205Y0432288D01*
X0023143Y0432143D01*
X0023077Y0432000D01*
X0023008Y0431858D01*
X0022936Y0431718D01*
X0022859Y0431580D01*
X0022780Y0431444D01*
X0022696Y0431310D01*
X0022610Y0431178D01*
X0022520Y0431049D01*
X0022427Y0430921D01*
X0022331Y0430796D01*
X0022232Y0430674D01*
X0022129Y0430554D01*
X0022024Y0430436D01*
X0021916Y0430322D01*
X0021804Y0430210D01*
X0021690Y0430101D01*
X0021574Y0429995D01*
X0021454Y0429892D01*
X0021333Y0429792D01*
X0021208Y0429695D01*
X0021081Y0429601D01*
X0020952Y0429510D01*
X0020821Y0429423D01*
X0020688Y0429339D01*
X0020552Y0429258D01*
X0020414Y0429181D01*
X0020275Y0429108D01*
X0020134Y0429038D01*
X0019991Y0428971D01*
X0019846Y0428908D01*
X0019700Y0428849D01*
X0019552Y0428793D01*
X0019403Y0428742D01*
X0019253Y0428694D01*
X0019102Y0428650D01*
X0018949Y0428609D01*
X0018796Y0428573D01*
X0018641Y0428540D01*
X0018486Y0428511D01*
X0018331Y0428487D01*
X0018174Y0428466D01*
X0018018Y0428449D01*
X0017860Y0428436D01*
X0017703Y0428427D01*
X0017545Y0428422D01*
X0017388Y0428421D01*
X0017230Y0428424D01*
X0017072Y0428431D01*
X0016915Y0428442D01*
X0016758Y0428457D01*
X0016601Y0428476D01*
X0016445Y0428499D01*
X0016290Y0428525D01*
X0016135Y0428556D01*
X0015981Y0428590D01*
X0015828Y0428629D01*
X0015676Y0428671D01*
X0015526Y0428717D01*
X0015376Y0428767D01*
X0015228Y0428821D01*
X0015081Y0428878D01*
X0014935Y0428939D01*
X0014792Y0429004D01*
X0014649Y0429072D01*
X0014509Y0429144D01*
X0014371Y0429219D01*
X0014234Y0429298D01*
X0014099Y0429380D01*
X0013967Y0429466D01*
X0013837Y0429555D01*
X0013709Y0429647D01*
X0013583Y0429743D01*
X0013460Y0429841D01*
X0013340Y0429943D01*
X0013222Y0430048D01*
X0013106Y0430155D01*
X0012994Y0430266D01*
X0012884Y0430379D01*
X0012777Y0430495D01*
X0012673Y0430613D01*
X0012572Y0430735D01*
X0012475Y0430858D01*
X0012380Y0430985D01*
X0012289Y0431113D01*
X0012200Y0431244D01*
X0012116Y0431377D01*
X0012034Y0431512D01*
X0011956Y0431649D01*
X0011882Y0431788D01*
X0011811Y0431929D01*
X0011743Y0432071D01*
X0011680Y0432216D01*
X0011619Y0432361D01*
X0011563Y0432509D01*
X0011510Y0432657D01*
X0011461Y0432807D01*
X0011416Y0432958D01*
X0011375Y0433111D01*
X0011337Y0433264D01*
X0011304Y0433418D01*
X0011274Y0433573D01*
X0011248Y0433728D01*
X0011227Y0433885D01*
X0011209Y0434041D01*
X0011195Y0434198D01*
X0011185Y0434356D01*
X0011179Y0434513D01*
X0011177Y0434671D01*
D11*
X0228789Y0068750D02*
X0226289Y0066250D01*
X0226289Y0061250D01*
X0228789Y0058750D01*
X0233789Y0058750D01*
X0236289Y0061250D01*
X0238789Y0058750D01*
X0243789Y0058750D01*
X0246289Y0061250D01*
X0246289Y0066250D01*
X0243789Y0068750D01*
X0238789Y0068750D01*
X0236289Y0066250D01*
X0233789Y0068750D01*
X0228789Y0068750D01*
X0236289Y0066250D02*
X0236289Y0061250D01*
D12*
X0265261Y0099328D02*
X0265261Y0104328D01*
X0295261Y0104328D02*
X0295261Y0099328D01*
M02*
